<svg id="SvgjsSvg1144" width="918.9921875" height="377.5" xmlns="http://www.w3.org/2000/svg" version="1.1" xmlns:xlink="http://www.w3.org/1999/xlink" xmlns:svgjs="http://svgjs.com/svgjs"><defs id="SvgjsDefs1145"></defs><rect id="svgbackgroundid" width="918.9921875" height="377.5" fill="#262626"></rect><g id="SvgjsG1147" transform="translate(80,25)"><path id="SvgjsPath1148" d="M 16.666666666666668 0L 83.33333333333333 0C 105.55555555555556 0 105.55555555555556 50 83.33333333333333 50L 16.666666666666668 50C -5.555555555555556 50 -5.555555555555556 0 16.666666666666668 0Z" stroke="none" fill-opacity="1" fill="#358e90"></path><g id="SvgjsG1149"><text id="SvgjsText1150" font-family="微软雅黑" text-anchor="middle" font-size="15px" width="80px" fill="#ffffff" font-weight="700" align="middle" lineHeight="125%" anchor="middle" family="微软雅黑" size="15px" weight="700" font-style="" opacity="1" y="12.625" transform="rotate(0)"><tspan id="SvgjsTspan1151" dy="18" x="50"><tspan id="SvgjsTspan1152" style="text-decoration:;">题库系统</tspan></tspan></text></g></g><g id="SvgjsG1153" transform="translate(415,25)"><path id="SvgjsPath1154" d="M 16.666666666666668 0L 139.33333333333334 0C 161.55555555555554 0 161.55555555555554 50 139.33333333333334 50L 16.666666666666668 50C -5.555555555555556 50 -5.555555555555556 0 16.666666666666668 0Z" stroke="rgba(0,0,0,1)" stroke-width="2" fill-opacity="1" fill="#ffffff"></path><g id="SvgjsG1155"><text id="SvgjsText1156" font-family="微软雅黑" text-anchor="middle" font-size="13px" width="136px" fill="#323232" font-weight="400" align="middle" lineHeight="125%" anchor="middle" family="微软雅黑" size="13px" weight="400" font-style="" opacity="1" y="14.375" transform="rotate(0)"><tspan id="SvgjsTspan1157" dy="16" x="78"><tspan id="SvgjsTspan1158" style="text-decoration:;">1. 添加试题</tspan></tspan></text></g></g><g id="SvgjsG1159" transform="translate(269,156)"><path id="SvgjsPath1160" d="M 16.666666666666668 0L 139.33333333333334 0C 161.55555555555554 0 161.55555555555554 50 139.33333333333334 50L 16.666666666666668 50C -5.555555555555556 50 -5.555555555555556 0 16.666666666666668 0Z" stroke="rgba(0,0,0,1)" stroke-width="2" fill-opacity="1" fill="#ffffff"></path><g id="SvgjsG1161"><text id="SvgjsText1162" font-family="微软雅黑" text-anchor="middle" font-size="13px" width="136px" fill="#323232" font-weight="400" align="middle" lineHeight="125%" anchor="middle" family="微软雅黑" size="13px" weight="400" font-style="" opacity="1" y="-2.125" transform="rotate(0)"><tspan id="SvgjsTspan1163" dy="16" x="78"><tspan id="SvgjsTspan1164" style="text-decoration:;">根据生成的试卷和班</tspan></tspan><tspan id="SvgjsTspan1165" dy="16" x="78"><tspan id="SvgjsTspan1166" style="text-decoration:;">级、开考时间等信息创</tspan></tspan><tspan id="SvgjsTspan1167" dy="16" x="78"><tspan id="SvgjsTspan1168" style="text-decoration:;">建考试计划</tspan></tspan></text></g></g><g id="SvgjsG1169" transform="translate(567,156)"><path id="SvgjsPath1170" d="M 16.666666666666668 0L 139.33333333333334 0C 161.55555555555554 0 161.55555555555554 50 139.33333333333334 50L 16.666666666666668 50C -5.555555555555556 50 -5.555555555555556 0 16.666666666666668 0Z" stroke="rgba(234,152,112,1)" stroke-width="2" fill-opacity="1" fill="#ffffff"></path><g id="SvgjsG1171"><text id="SvgjsText1172" font-family="微软雅黑" text-anchor="middle" font-size="13px" width="136px" fill="#323232" font-weight="400" align="middle" lineHeight="125%" anchor="middle" family="微软雅黑" size="13px" weight="400" font-style="" opacity="1" y="5.875" transform="rotate(0)"><tspan id="SvgjsTspan1173" dy="16" x="78"><tspan id="SvgjsTspan1174" style="text-decoration:;">根据添加的试题，或已</tspan></tspan><tspan id="SvgjsTspan1175" dy="16" x="78"><tspan id="SvgjsTspan1176" style="text-decoration:;">有的试题生成试卷</tspan></tspan></text></g></g><g id="SvgjsG1177" transform="translate(745,302.5)"><path id="SvgjsPath1178" d="M 16.666666666666668 0L 83.33333333333333 0C 105.55555555555556 0 105.55555555555556 50 83.33333333333333 50L 16.666666666666668 50C -5.555555555555556 50 -5.555555555555556 0 16.666666666666668 0Z" stroke="none" fill-opacity="1" fill="#99ccff"></path><g id="SvgjsG1179"><text id="SvgjsText1180" font-family="微软雅黑" text-anchor="middle" font-size="15px" width="80px" fill="#ffffff" font-weight="700" align="middle" lineHeight="125%" anchor="middle" family="微软雅黑" size="15px" weight="700" font-style="" opacity="1" y="12.625" transform="rotate(0)"><tspan id="SvgjsTspan1181" dy="18" x="50"><tspan id="SvgjsTspan1182" style="text-decoration:;">FINISH</tspan></tspan></text></g></g><g id="SvgjsG1183" transform="translate(170,303)"><path id="SvgjsPath1184" d="M 16.333333333333332 0L 114.66666666666667 0C 136.44444444444446 0 136.44444444444446 49 114.66666666666667 49L 16.333333333333332 49C -5.444444444444444 49 -5.444444444444444 0 16.333333333333332 0Z" stroke="rgba(227,98,126,1)" stroke-width="2" fill-opacity="1" fill="#ffffff"></path><g id="SvgjsG1185"><text id="SvgjsText1186" font-family="微软雅黑" text-anchor="middle" font-size="13px" width="111px" fill="#323232" font-weight="400" align="middle" lineHeight="125%" anchor="middle" family="微软雅黑" size="13px" weight="400" font-style="" opacity="1" y="-2.625" transform="rotate(0)"><tspan id="SvgjsTspan1187" dy="16" x="65.5"><tspan id="SvgjsTspan1188" style="text-decoration:;">学生登录考试系统</tspan></tspan><tspan id="SvgjsTspan1189" dy="16" x="65.5"><tspan id="SvgjsTspan1190" style="text-decoration:;">可以查询或进行考</tspan></tspan><tspan id="SvgjsTspan1191" dy="16" x="65.5"><tspan id="SvgjsTspan1192" style="text-decoration:;">试</tspan></tspan></text></g></g><g id="SvgjsG1193" transform="translate(436,303)"><path id="SvgjsPath1194" d="M 16.333333333333332 0L 114.66666666666667 0C 136.44444444444446 0 136.44444444444446 49 114.66666666666667 49L 16.333333333333332 49C -5.444444444444444 49 -5.444444444444444 0 16.333333333333332 0Z" stroke="rgba(0,0,0,1)" stroke-width="2" fill-opacity="1" fill="#ffffff"></path><g id="SvgjsG1195"><text id="SvgjsText1196" font-family="微软雅黑" text-anchor="middle" font-size="13px" width="111px" fill="#323232" font-weight="400" align="middle" lineHeight="125%" anchor="middle" family="微软雅黑" size="13px" weight="400" font-style="" opacity="1" y="-2.625" transform="rotate(0)"><tspan id="SvgjsTspan1197" dy="16" x="65.5"><tspan id="SvgjsTspan1198" style="text-decoration:;">考试完毕，老师在</tspan></tspan><tspan id="SvgjsTspan1199" dy="16" x="65.5"><tspan id="SvgjsTspan1200" style="text-decoration:;">题库系统进行主观</tspan></tspan><tspan id="SvgjsTspan1201" dy="16" x="65.5"><tspan id="SvgjsTspan1202" style="text-decoration:;">题阅卷</tspan></tspan></text></g></g><g id="SvgjsG1203" transform="translate(277,40)"><path id="SvgjsPath1204" d="M 0 10C 0 -3.3333333333333335 20 -3.3333333333333335 20 10C 20 23.333333333333332 0 23.333333333333332 0 10Z" stroke-dasharray="10,6" stroke="rgba(33,41,48,1)" stroke-width="1" fill-opacity="1" fill="#ffffff"></path><g id="SvgjsG1205"><text id="SvgjsText1206" font-family="微软雅黑" text-anchor="middle" font-size="13px" width="0px" fill="#323232" font-weight="400" align="middle" lineHeight="125%" anchor="middle" family="微软雅黑" size="13px" weight="400" font-style="" opacity="1" y="-0.625" transform="rotate(0)"></text></g></g><g id="SvgjsG1207" transform="translate(493,171)"><path id="SvgjsPath1208" d="M 0 10C 0 -3.3333333333333335 20 -3.3333333333333335 20 10C 20 23.333333333333332 0 23.333333333333332 0 10Z" stroke-dasharray="10,6" stroke="rgba(33,41,48,1)" stroke-width="1" fill-opacity="1" fill="#ffffff"></path><g id="SvgjsG1209"><text id="SvgjsText1210" font-family="微软雅黑" text-anchor="middle" font-size="13px" width="0px" fill="#323232" font-weight="400" align="middle" lineHeight="125%" anchor="middle" family="微软雅黑" size="13px" weight="400" font-style="" opacity="1" y="-0.625" transform="rotate(0)"></text></g></g><g id="SvgjsG1211" transform="translate(193,171)"><path id="SvgjsPath1212" d="M 0 10C 0 -3.3333333333333335 20 -3.3333333333333335 20 10C 20 23.333333333333332 0 23.333333333333332 0 10Z" stroke-dasharray="10,6" stroke="rgba(33,41,48,1)" stroke-width="1" fill-opacity="1" fill="#ffffff"></path><g id="SvgjsG1213"><text id="SvgjsText1214" font-family="微软雅黑" text-anchor="middle" font-size="13px" width="0px" fill="#323232" font-weight="400" align="middle" lineHeight="125%" anchor="middle" family="微软雅黑" size="13px" weight="400" font-style="" opacity="1" y="-0.625" transform="rotate(0)"></text></g></g><g id="SvgjsG1215" transform="translate(359,317.5)"><path id="SvgjsPath1216" d="M 0 10C 0 -3.3333333333333335 20 -3.3333333333333335 20 10C 20 23.333333333333332 0 23.333333333333332 0 10Z" stroke-dasharray="10,6" stroke="rgba(33,41,48,1)" stroke-width="1" fill-opacity="1" fill="#ffffff"></path><g id="SvgjsG1217"><text id="SvgjsText1218" font-family="微软雅黑" text-anchor="middle" font-size="13px" width="0px" fill="#323232" font-weight="400" align="middle" lineHeight="125%" anchor="middle" family="微软雅黑" size="13px" weight="400" font-style="" opacity="1" y="-0.625" transform="rotate(0)"></text></g></g><g id="SvgjsG1219" transform="translate(653,317.5)"><path id="SvgjsPath1220" d="M 0 10C 0 -3.3333333333333335 20 -3.3333333333333335 20 10C 20 23.333333333333332 0 23.333333333333332 0 10Z" stroke-dasharray="10,6" stroke="rgba(33,41,48,1)" stroke-width="1" fill-opacity="1" fill="#ffffff"></path><g id="SvgjsG1221"><text id="SvgjsText1222" font-family="微软雅黑" text-anchor="middle" font-size="13px" width="0px" fill="#323232" font-weight="400" align="middle" lineHeight="125%" anchor="middle" family="微软雅黑" size="13px" weight="400" font-style="" opacity="1" y="-0.625" transform="rotate(0)"></text></g></g><g id="SvgjsG1223"><path id="SvgjsPath1224" d="M180 50L228.5 50L228.5 50L276.5 50" stroke-dasharray="3,3" stroke="#70d5d7" stroke-width="2" fill="none"></path></g><g id="SvgjsG1225"><path id="SvgjsPath1226" d="M297.5 50L356 50L356 50L414 50" stroke-dasharray="3,3" stroke="#70d5d7" stroke-width="2" fill="none"></path></g><g id="SvgjsG1227"><path id="SvgjsPath1228" d="M571.9997544693059 49.97784145531004C 894 34 803.2645625416347 181 723.9945571219507 180.89580724028423" stroke-dasharray="3,3" stroke="#70d5d7" stroke-width="2" fill="none"></path></g><g id="SvgjsG1229"><path id="SvgjsPath1230" d="M566 181L540 181L540 181L513.5 181" stroke-dasharray="3,3" stroke="#70d5d7" stroke-width="2" fill="none"></path></g><g id="SvgjsG1231"><path id="SvgjsPath1232" d="M492.5 181L459 181L459 181L426 181" stroke-dasharray="3,3" stroke="#70d5d7" stroke-width="2" fill="none"></path></g><g id="SvgjsG1233"><path id="SvgjsPath1234" d="M268 181L241 181L241 181L213.5 181" stroke-dasharray="3,3" stroke="#70d5d7" stroke-width="1" fill="none"></path></g><g id="SvgjsG1235"><path id="SvgjsPath1236" d="M192.5000106684601 180.996733756548C 142.4842598787269 181 75.00000000000003 175.4842598787269 75.13447909679749 225.00908356935383" stroke-dasharray="3,3" stroke="#70d5d7" stroke-width="2" fill="none"></path></g><g id="SvgjsG1237"><path id="SvgjsPath1238" d="M302 327.5L330 327.5L330 327.5L358.5 327.5" stroke-dasharray="3,3" stroke="#70d5d7" stroke-width="2" fill="none"></path></g><g id="SvgjsG1239"><path id="SvgjsPath1240" d="M379.5 327.5L407.5 327.5L407.5 327.5L435 327.5" stroke-dasharray="3,3" stroke="#70d5d7" stroke-width="2" fill="none"></path></g><g id="SvgjsG1241"><path id="SvgjsPath1242" d="M568 327.5L610 327.5L610 327.5L652.5 327.5" stroke-dasharray="3,3" stroke="#70d5d7" stroke-width="2" fill="none"></path></g><g id="SvgjsG1243"><path id="SvgjsPath1244" d="M673.5 327.5L709 327.5L709 327.5L745 327.5" stroke-dasharray="3,3" stroke="#70d5d7" stroke-width="2" fill="none"></path></g><g id="SvgjsG1245" transform="translate(25,226)"><path id="SvgjsPath1246" d="M 16.666666666666668 0L 83.33333333333333 0C 105.55555555555556 0 105.55555555555556 50 83.33333333333333 50L 16.666666666666668 50C -5.555555555555556 50 -5.555555555555556 0 16.666666666666668 0Z" stroke="rgba(33,41,48,1)" stroke-width="2" fill-opacity="1" fill="#ffffff"></path><g id="SvgjsG1247"><text id="SvgjsText1248" font-family="微软雅黑" text-anchor="middle" font-size="13px" width="80px" fill="#323232" font-weight="400" align="middle" lineHeight="125%" anchor="middle" family="微软雅黑" size="13px" weight="400" font-style="" opacity="1" y="14.375" transform="rotate(0)"><tspan id="SvgjsTspan1249" dy="16" x="50"><tspan id="SvgjsTspan1250" style="text-decoration:;">审批（？）</tspan></tspan></text></g></g><g id="SvgjsG1251"><path id="SvgjsPath1252" d="M75.13810983820377 276.9904169185708C 75 319.2245300726335 126.77546992736649 327.5 169.00027406533897 327.4765894133754" stroke-dasharray="3,3" stroke="#70d5d7" stroke-width="2" fill="none"></path></g></svg>